<svg aria-hidden="true" style="position: absolute; width: 0; height: 0; overflow: hidden;" version="1.1" xmlns="http://www.w3.org/2000/svg" xmlns:xlink="http://www.w3.org/1999/xlink">
<defs>
<symbol id="icon-moon" viewBox="0 0 32 32">
<path d="M16.767 31c-4.223 0-8.186-1.637-11.158-4.609s-4.609-6.935-4.609-11.159c0-0.001 0-0.002 0-0.003 0-6.106 3.471-11.402 8.548-14.020l0.088-0.041c0.202-0.105 0.441-0.167 0.694-0.167 0.844 0 1.527 0.684 1.527 1.528 0 0.16-0.025 0.315-0.070 0.46l0.003-0.011c-0.39 1.217-0.615 2.616-0.615 4.069 0 3.804 1.544 7.248 4.040 9.739l0 0c2.478 2.495 5.91 4.040 9.703 4.040 0.009 0 0.017 0 0.026-0h-0.001c0.003 0 0.007 0 0.010 0 1.452 0 2.852-0.225 4.167-0.642l-0.097 0.027c0.134-0.043 0.289-0.068 0.449-0.068 0.844 0 1.527 0.684 1.527 1.527 0 0.253-0.062 0.492-0.171 0.702l0.004-0.009c-2.66 5.165-7.956 8.637-14.062 8.637-0.001 0-0.002 0-0.003 0h0zM9.582 3.486c-3.973 2.447-6.582 6.774-6.582 11.709 0 0.013 0 0.026 0 0.039v-0.002c0 7.591 6.176 13.768 13.767 13.768 0.011 0 0.024 0 0.037 0 4.936 0 9.262-2.609 11.675-6.523l0.034-0.059c-1.071 0.259-2.3 0.407-3.564 0.407-0.002 0-0.005 0-0.007 0h0c-0.009 0-0.019 0-0.030 0-4.344 0-8.274-1.769-11.111-4.625l-0.001-0.001c-2.858-2.853-4.626-6.797-4.626-11.154 0-1.262 0.148-2.489 0.429-3.666l-0.022 0.107z"></path>
</symbol>
<symbol id="icon-sun" viewBox="0 0 32 32">
<path d="M4 15h-3c-0.552 0-1 0.448-1 1s0.448 1 1 1h3c0.552 0 1-0.448 1-1s-0.448-1-1-1zM16 5c0.552 0 1-0.448 1-1v-3c0-0.552-0.448-1-1-1s-1 0.448-1 1v3c0 0.552 0.448 1 1 1zM25.621 7.78l2.101-2.101c0.387-0.387 0.387-1.014 0-1.401s-1.014-0.387-1.401 0l-2.101 2.101c-0.387 0.387-0.387 1.014 0 1.401s1.014 0.387 1.401 0zM7.41 23.19l-2.101 2.101c-0.387 0.387-0.387 1.014 0 1.401s1.014 0.387 1.401 0l2.101-2.101c0.387-0.387 0.387-1.014 0-1.401s-1.014-0.387-1.401 0zM6.808 8.222c0.391 0.391 1.024 0.391 1.414 0s0.39-1.024 0-1.414l-2.121-2.122c-0.391-0.391-1.024-0.391-1.414 0-0.391 0.391-0.391 1.024 0 1.414l2.121 2.122zM16 27c-0.552 0-1 0.448-1 1v3c0 0.552 0.448 1 1 1s1-0.448 1-1v-3c0-0.552-0.448-1-1-1zM25.192 23.778c-0.391-0.391-1.024-0.391-1.414 0s-0.391 1.024 0 1.414l2.121 2.121c0.391 0.391 1.024 0.391 1.414 0s0.391-1.024 0-1.414l-2.121-2.121zM31 15h-3c-0.552 0-1 0.448-1 1s0.448 1 1 1h3c0.552 0 1-0.448 1-1s-0.448-1-1-1zM16 6.994c-4.974 0-9.006 4.032-9.006 9.006s4.032 9.006 9.006 9.006 9.006-4.032 9.006-9.006-4.032-9.006-9.006-9.006zM16 22.998c-3.865 0-6.998-3.133-6.998-6.998s3.133-6.998 6.998-6.998 6.998 3.133 6.998 6.998-3.133 6.998-6.998 6.998z"></path>
</symbol>
<symbol id="icon-delete" viewBox="0 0 32 32">
<path d="M7.523 29.828c0 0 0.477 2.172 2.93 2.172h11.093c2.453 0 2.93-2.172 2.93-2.172l2.19-21.295h-21.333l2.19 21.295zM20.267 11.733c0-0.589 0.477-1.067 1.067-1.067s1.067 0.477 1.067 1.067l-1.067 16c0 0.589-0.478 1.067-1.067 1.067s-1.067-0.478-1.067-1.067l1.067-16zM14.933 11.733c0-0.589 0.478-1.067 1.067-1.067s1.067 0.477 1.067 1.067v16c0 0.589-0.477 1.067-1.067 1.067s-1.067-0.478-1.067-1.067v-16zM10.667 10.667c0.589 0 1.067 0.477 1.067 1.067l1.067 16c0 0.589-0.478 1.067-1.067 1.067s-1.067-0.478-1.067-1.067l-1.067-16c0-0.589 0.478-1.067 1.067-1.067zM26.027 4.268h-4.693v-2.135c0-1.618-0.523-2.133-2.133-2.133h-6.4c-1.477 0-2.133 0.715-2.133 2.133v2.135h-4.693c-0.943 0-1.707 0.716-1.707 1.601s0.763 1.601 1.707 1.601h20.053c0.943 0 1.707-0.716 1.707-1.601s-0.763-1.601-1.707-1.601zM19.2 4.268h-6.4l0-2.135h6.4v2.135z"></path>
</symbol>
<symbol id="icon-edit" viewBox="0 0 32 32">
<path d="M30.83 9.658l-1.414 1.415-8.486-8.485 1.414-1.415c1.562-1.562 4.096-1.562 5.658 0l2.828 2.829c1.56 1.562 1.56 4.094 0 5.656zM11.029 26.627c-0.391 0.391-0.391 1.023 0 1.414 0.391 0.393 1.024 0.393 1.414 0l15.558-15.554-1.416-1.415-15.557 15.555zM3.957 19.557c-0.391 0.391-0.391 1.023 0 1.414s1.023 0.391 1.414 0l15.558-15.555-1.414-1.414-15.558 15.556zM22.341 6.828l-15.557 15.556c-0.781 0.78-0.779 2.047 0 2.828 0.782 0.781 2.047 0.785 2.83-0.002l15.557-15.553-2.83-2.829zM9.611 29.451c-0.478-0.479-0.709-1.086-0.795-1.711-0.203 0.031-0.408 0.061-0.617 0.061-1.069 0-2.072-0.418-2.828-1.174-0.756-0.758-1.172-1.76-1.172-2.828 0-0.195 0.029-0.385 0.057-0.574-0.647-0.088-1.244-0.371-1.713-0.84-0.045-0.045-0.060-0.105-0.101-0.154l-2.442 9.769 9.744-2.439c-0.043-0.039-0.092-0.068-0.133-0.109z"></path>
</symbol>
<symbol id="icon-logout" viewBox="0 0 32 32">
<path d="M23.984 17.988v-3.996h-7.994v-4h7.994v-3.994l7.996 5.996-7.996 5.996zM19.988 23.984h-7.996v-17.988l-7.992-3.996h15.99v5.996h2v-5.996c0-1.1-0.9-1.998-2-1.998h-17.992c-1.103 0.002-1.996 0.895-1.998 1.998v22.744c0 0.78 0.44 1.46 1.1 1.82l10.892 5.436v-6.016h7.996c1.1 0 2-0.9 2-2v-7.992h-2v7.996z"></path>
</symbol>
</defs>
</svg>
