<svg aria-hidden="true" style="position: absolute; width: 0; height: 0; overflow: hidden;" version="1.1" xmlns="http://www.w3.org/2000/svg" xmlns:xlink="http://www.w3.org/1999/xlink">
<defs>
<symbol id="icon-delete" viewBox="0 0 32 32">
<path d="M7.523 29.828c0 0 0.477 2.172 2.93 2.172h11.093c2.453 0 2.93-2.172 2.93-2.172l2.19-21.295h-21.333l2.19 21.295zM20.267 11.733c0-0.589 0.477-1.067 1.067-1.067s1.067 0.477 1.067 1.067l-1.067 16c0 0.589-0.478 1.067-1.067 1.067s-1.067-0.478-1.067-1.067l1.067-16zM14.933 11.733c0-0.589 0.478-1.067 1.067-1.067s1.067 0.477 1.067 1.067v16c0 0.589-0.477 1.067-1.067 1.067s-1.067-0.478-1.067-1.067v-16zM10.667 10.667c0.589 0 1.067 0.477 1.067 1.067l1.067 16c0 0.589-0.478 1.067-1.067 1.067s-1.067-0.478-1.067-1.067l-1.067-16c0-0.589 0.478-1.067 1.067-1.067zM26.027 4.268h-4.693v-2.135c0-1.618-0.523-2.133-2.133-2.133h-6.4c-1.477 0-2.133 0.715-2.133 2.133v2.135h-4.693c-0.943 0-1.707 0.716-1.707 1.601s0.763 1.601 1.707 1.601h20.053c0.943 0 1.707-0.716 1.707-1.601s-0.763-1.601-1.707-1.601zM19.2 4.268h-6.4l0-2.135h6.4v2.135z"></path>
</symbol>
<symbol id="icon-edit" viewBox="0 0 32 32">
<path d="M30.83 9.658l-1.414 1.415-8.486-8.485 1.414-1.415c1.562-1.562 4.096-1.562 5.658 0l2.828 2.829c1.56 1.562 1.56 4.094 0 5.656zM11.029 26.627c-0.391 0.391-0.391 1.023 0 1.414 0.391 0.393 1.024 0.393 1.414 0l15.558-15.554-1.416-1.415-15.557 15.555zM3.957 19.557c-0.391 0.391-0.391 1.023 0 1.414s1.023 0.391 1.414 0l15.558-15.555-1.414-1.414-15.558 15.556zM22.341 6.828l-15.557 15.556c-0.781 0.78-0.779 2.047 0 2.828 0.782 0.781 2.047 0.785 2.83-0.002l15.557-15.553-2.83-2.829zM9.611 29.451c-0.478-0.479-0.709-1.086-0.795-1.711-0.203 0.031-0.408 0.061-0.617 0.061-1.069 0-2.072-0.418-2.828-1.174-0.756-0.758-1.172-1.76-1.172-2.828 0-0.195 0.029-0.385 0.057-0.574-0.647-0.088-1.244-0.371-1.713-0.84-0.045-0.045-0.060-0.105-0.101-0.154l-2.442 9.769 9.744-2.439c-0.043-0.039-0.092-0.068-0.133-0.109z"></path>
</symbol>
<symbol id="icon-logout" viewBox="0 0 32 32">
<path d="M23.984 17.988v-3.996h-7.994v-4h7.994v-3.994l7.996 5.996-7.996 5.996zM19.988 23.984h-7.996v-17.988l-7.992-3.996h15.99v5.996h2v-5.996c0-1.1-0.9-1.998-2-1.998h-17.992c-1.103 0.002-1.996 0.895-1.998 1.998v22.744c0 0.78 0.44 1.46 1.1 1.82l10.892 5.436v-6.016h7.996c1.1 0 2-0.9 2-2v-7.992h-2v7.996z"></path>
</symbol>
<symbol id="icon-moon" viewBox="0 0 32 32">
<path  d="M268.279,496c-67.574,0-130.978-26.191-178.534-73.745S16,311.293,16,243.718A252.252,252.252,0,0,1,154.183,18.676a24.44,24.44,0,0,1,34.46,28.958,220.12,220.12,0,0,0,54.8,220.923A218.746,218.746,0,0,0,399.085,333.2h0a220.2,220.2,0,0,0,65.277-9.846,24.439,24.439,0,0,1,28.959,34.461A252.256,252.256,0,0,1,268.279,496ZM153.31,55.781A219.3,219.3,0,0,0,48,243.718C48,365.181,146.816,464,268.279,464a219.3,219.3,0,0,0,187.938-105.31,252.912,252.912,0,0,1-57.13,6.513h0a250.539,250.539,0,0,1-178.268-74.016,252.147,252.147,0,0,1-67.509-235.4Z"/>
</symbol>
</defs>
</svg>
